<svg width="25" height="25" viewBox="0 0 25 25" fill="current" xmlns="http://www.w3.org/2000/svg">
<path d="M16.118 4.50049H18.118C18.6485 4.50049 19.1572 4.7112 19.5323 5.08627C19.9073 5.46135 20.118 5.97006 20.118 6.50049V20.5005C20.118 21.0309 19.9073 21.5396 19.5323 21.9147C19.1572 22.2898 18.6485 22.5005 18.118 22.5005H6.11804C5.58761 22.5005 5.0789 22.2898 4.70383 21.9147C4.32876 21.5396 4.11804 21.0309 4.11804 20.5005V6.50049C4.11804 5.97006 4.32876 5.46135 4.70383 5.08627C5.0789 4.7112 5.58761 4.50049 6.11804 4.50049H8.11804" stroke="current" />
<path d="M15.118 2.50049H9.11804C8.56576 2.50049 8.11804 2.9482 8.11804 3.50049V5.50049C8.11804 6.05277 8.56576 6.50049 9.11804 6.50049H15.118C15.6703 6.50049 16.118 6.05277 16.118 5.50049V3.50049C16.118 2.9482 15.6703 2.50049 15.118 2.50049Z" stroke="current" stroke-width="2" stroke-linecap="round" stroke-linejoin="round"/>
</svg>
