<svg width="107" height="34" viewBox="0 0 107 34" fill="none" xmlns="http://www.w3.org/2000/svg">
<path d="M82.76 16.662C83.8598 16.9706 85.0102 17.0577 86.1441 16.9184C79.834 19.669 65.391 26.5175 68.9153 30.1678C68.9153 30.1678 62.3107 27.0116 82.76 16.648" fill="white"/>
<path d="M66.4754 29.1795C64.0355 24.8485 73.0004 18.2191 78.9927 14.4522C79.3938 14.8613 79.8372 15.227 80.3154 15.5431C68.6582 22.3543 67.4195 25.7529 67.4195 25.7529C63.9139 31.613 75.3655 33.3799 75.3655 33.3799C68.2702 33.0816 66.4847 29.1841 66.4847 29.1841" fill="white"/>
<path d="M76.8893 10.9977C77.0155 11.3958 77.1718 11.7839 77.3567 12.1585C62.4556 22.1026 64.3113 27.7995 65.0638 29.1329C61.3993 23.2448 71.9441 14.5967 76.8893 10.9977Z" fill="white"/>
<path d="M63.9654 23.007C65.0358 17.5851 72.8462 10.8858 76.4967 8.04663C76.4711 8.64254 76.5087 9.23948 76.6089 9.82752C66.3258 17.0769 64.6618 22.2238 64.6618 22.2238C62.4323 28.4802 65.9846 30.9138 66.8774 31.4126C62.5024 29.0816 63.9654 23.021 63.9654 23.021" fill="white"/>
<path d="M63.2736 20.9464C65.5125 13.9534 73.6548 6.84852 78.1466 3.34735C77.4696 4.27257 76.9849 5.32348 76.721 6.43826C66.1014 14.4522 63.8625 21.1842 63.8625 21.1842C60.5065 33.1655 72.5985 33.9581 74.8046 34C58.9126 33.8462 63.2736 20.9464 63.2736 20.9464Z" fill="white"/>
<path d="M0.719815 6.22382H4.67412C4.86503 6.22382 5.04812 6.29946 5.18311 6.4341C5.3181 6.56874 5.39394 6.75135 5.39394 6.94176V25.1749C5.39394 25.3653 5.46977 25.5479 5.60477 25.6825C5.73976 25.8172 5.92284 25.8928 6.11375 25.8928H13.4848C13.6762 25.8941 13.8593 25.9707 13.9941 26.1061C14.129 26.2415 14.2047 26.4246 14.2047 26.6154V30.0653C14.201 30.2533 14.1235 30.4323 13.9889 30.564C13.8543 30.6956 13.6733 30.7693 13.4848 30.7693H0.719815C0.529715 30.7693 0.347332 30.6943 0.212474 30.5606C0.0776164 30.427 0.00123441 30.2456 0 30.056L0 6.94176C0 6.75135 0.0758374 6.56874 0.210829 6.4341C0.34582 6.29946 0.528908 6.22382 0.719815 6.22382Z" fill="white"/>
<path d="M34.1491 30.3031L32.7469 26.3217C32.6967 26.1842 32.6051 26.0656 32.4845 25.9821C32.364 25.8986 32.2206 25.8544 32.0738 25.8555H23.7165C23.5704 25.8547 23.4277 25.8991 23.3079 25.9826C23.1882 26.0661 23.0974 26.1846 23.0481 26.3217L21.6178 30.3031C21.5679 30.4398 21.477 30.5579 21.3574 30.6414C21.2378 30.7248 21.0953 30.7694 20.9494 30.7693H16.7053C16.5884 30.7693 16.4732 30.7407 16.3699 30.686C16.2666 30.6313 16.1783 30.5522 16.1128 30.4555C16.0473 30.3589 16.0066 30.2477 15.9942 30.1317C15.9817 30.0157 15.998 29.8985 16.0416 29.7902L25.3898 6.7646C25.4406 6.62931 25.5311 6.51245 25.6495 6.42928C25.7679 6.3461 25.9087 6.30049 26.0536 6.2984H29.6713C29.8157 6.30014 29.956 6.34568 30.0738 6.42896C30.1915 6.51224 30.281 6.62932 30.3304 6.7646L39.73 29.7949C39.7738 29.9029 39.7903 30.0199 39.7779 30.1358C39.7655 30.2516 39.7247 30.3626 39.6591 30.4589C39.5935 30.5552 39.505 30.634 39.4017 30.6881C39.2983 30.7422 39.1831 30.7701 39.0663 30.7693H34.8222C34.6756 30.7697 34.5325 30.7252 34.4121 30.6419C34.2917 30.5585 34.1999 30.4402 34.1491 30.3031ZM27.194 14.6108L25.1047 20.4756C25.0703 20.582 25.0614 20.695 25.0788 20.8054C25.0962 20.9159 25.1394 21.0207 25.2049 21.1115C25.2704 21.2022 25.3564 21.2764 25.4559 21.3279C25.5554 21.3794 25.6657 21.4068 25.7778 21.408H29.9565C30.0686 21.4068 30.1788 21.3794 30.2783 21.3279C30.3778 21.2764 30.4638 21.2022 30.5293 21.1115C30.5948 21.0207 30.638 20.9159 30.6554 20.8054C30.6728 20.695 30.664 20.582 30.6295 20.4756L28.5402 14.6108C28.4904 14.4725 28.3991 14.3529 28.2786 14.2684C28.1581 14.1839 28.0144 14.1385 27.8671 14.1385C27.7198 14.1385 27.5761 14.1839 27.4557 14.2684C27.3352 14.3529 27.2438 14.4725 27.194 14.6108Z" fill="white"/>
<path d="M56.0895 30.3963L49.2512 18.0233C49.181 17.8656 49.057 17.7376 48.9013 17.6622C48.7456 17.5867 48.5682 17.5686 48.4004 17.611C48.2326 17.6534 48.0852 17.7536 47.9843 17.8939C47.8834 18.0342 47.8355 18.2055 47.849 18.3777V30.0327C47.8503 30.2236 47.7768 30.4075 47.644 30.5451C47.5113 30.6828 47.3299 30.7632 47.1385 30.7693H43.2029C43.1062 30.7699 43.0102 30.7514 42.9207 30.7149C42.8311 30.6784 42.7496 30.6246 42.681 30.5565C42.6124 30.4885 42.5579 30.4076 42.5207 30.3185C42.4836 30.2294 42.4644 30.1338 42.4644 30.0373V7.0583C42.4644 6.96179 42.4836 6.86623 42.5207 6.77712C42.5579 6.68802 42.6124 6.60712 42.681 6.53909C42.7496 6.47107 42.8311 6.41725 42.9207 6.38074C43.0102 6.34423 43.1062 6.32576 43.2029 6.32637H47.4424C47.5732 6.32619 47.7018 6.36116 47.8144 6.4276C47.9271 6.49405 48.0198 6.58952 48.0827 6.70399L54.9303 19.077C55.0006 19.2347 55.1245 19.3627 55.2802 19.4381C55.4359 19.5136 55.6133 19.5317 55.7812 19.4893C55.949 19.4469 56.0963 19.3467 56.1972 19.2064C56.2981 19.0661 56.3461 18.8948 56.3325 18.7226V7.06763C56.3298 6.87896 56.4003 6.69653 56.5291 6.55841C56.658 6.4203 56.8354 6.33717 57.0243 6.32637H60.9646C61.1592 6.32637 61.3459 6.40348 61.4835 6.54075C61.6211 6.67801 61.6984 6.86418 61.6984 7.0583V30.042C61.6973 30.2321 61.622 30.4143 61.4885 30.5501C61.355 30.6858 61.1738 30.7644 60.9833 30.7693H56.7439C56.6114 30.7709 56.4808 30.7372 56.3658 30.6717C56.2507 30.6061 56.1553 30.511 56.0895 30.3963Z" fill="white"/>
<path d="M94.0574 6.4056C94.3397 7.59974 94.3661 8.83988 94.135 10.0449C93.9038 11.25 93.4202 12.3928 92.7159 13.3986V30.0513C92.7399 30.2561 92.8382 30.4451 92.9924 30.5825C93.1465 30.7199 93.3458 30.7963 93.5525 30.7972H106.304C106.399 30.7942 106.492 30.7725 106.578 30.7333C106.665 30.6941 106.743 30.6382 106.808 30.5689C106.872 30.4996 106.923 30.4181 106.956 30.3293C106.989 30.2404 107.004 30.146 107 30.0513V26.6107C107.004 26.5167 106.989 26.4229 106.955 26.3349C106.922 26.2469 106.872 26.1663 106.807 26.0981C106.742 26.0299 106.664 25.9753 106.577 25.9376C106.491 25.9 106.398 25.88 106.304 25.8788H98.9605C98.7695 25.8813 98.5851 25.809 98.447 25.6774C98.3089 25.5457 98.2281 25.3653 98.222 25.1748V21.683C98.2304 21.4933 98.312 21.3143 98.4495 21.1831C98.5871 21.0519 98.7702 20.9788 98.9605 20.979H105.944C106.036 20.9779 106.127 20.9581 106.212 20.9208C106.297 20.8834 106.373 20.8293 106.436 20.7617C106.499 20.6941 106.547 20.6145 106.578 20.5276C106.609 20.4408 106.622 20.3485 106.617 20.2564V16.7832C106.623 16.6894 106.611 16.5952 106.58 16.5062C106.55 16.4172 106.502 16.3352 106.439 16.2649C106.376 16.1946 106.3 16.1375 106.215 16.0968C106.13 16.0561 106.038 16.0327 105.944 16.028H98.9605C98.8661 16.0317 98.7718 16.0166 98.6833 15.9836C98.5947 15.9505 98.5137 15.9001 98.4449 15.8355C98.3761 15.7708 98.321 15.693 98.2827 15.6068C98.2444 15.5206 98.2238 15.4276 98.222 15.3333V11.9301C98.2209 11.7262 98.296 11.5293 98.4325 11.3776C98.569 11.226 98.7572 11.1304 98.9605 11.1096H106.304C106.392 11.1195 106.481 11.1106 106.566 11.0833C106.651 11.0561 106.728 11.0113 106.794 10.9517C106.86 10.8922 106.913 10.8194 106.948 10.7381C106.984 10.6568 107.001 10.5688 107 10.4802V7.04895C107.001 6.95933 106.983 6.8705 106.948 6.78822C106.912 6.70593 106.859 6.63205 106.793 6.57137C106.727 6.51069 106.649 6.46457 106.564 6.43601C106.479 6.40745 106.388 6.39709 106.299 6.4056" fill="white"/>
<path d="M85.3681 14.8205C86.6961 14.826 87.9959 14.439 89.1035 13.7084C90.2112 12.9778 91.077 11.9363 91.5918 10.7153C92.1065 9.49434 92.2471 8.14865 91.9959 6.84807C91.7446 5.54748 91.1127 4.35028 90.1799 3.40756C89.2471 2.46483 88.0552 1.81883 86.7547 1.55108C85.4541 1.28333 84.1032 1.40582 82.8724 1.90311C81.6416 2.40039 80.586 3.25018 79.839 4.34523C79.0919 5.44028 78.6868 6.73151 78.6748 8.05597C78.6636 9.83812 79.3624 11.5518 80.6175 12.8203C81.8726 14.0887 83.5814 14.8082 85.3681 14.8205ZM85.499 1.02567C86.9033 1.04599 88.2701 1.48071 89.427 2.275C90.5839 3.06929 91.4789 4.18754 91.9993 5.48866C92.5196 6.78979 92.6419 8.21549 92.3508 9.58587C92.0596 10.9563 91.368 12.2099 90.3633 13.1887C89.3585 14.1675 88.0856 14.8275 86.7052 15.0855C85.3247 15.3434 83.8986 15.1878 82.6068 14.6383C81.3149 14.0887 80.2152 13.1698 79.4464 11.9975C78.6775 10.8252 78.2741 9.45207 78.2869 8.05131C78.3115 6.16648 79.0846 4.36834 80.4367 3.05128C81.7887 1.73422 83.6092 1.00575 85.499 1.02567Z" fill="white"/>
<path d="M85.3682 15.2074C86.7726 15.2129 88.1473 14.8033 89.3186 14.0304C90.49 13.2575 91.4055 12.1558 91.9498 10.8644C92.494 9.573 92.6426 8.14976 92.3767 6.77424C92.1108 5.39872 91.4424 4.13257 90.4558 3.13555C89.4692 2.13853 88.2087 1.45531 86.8332 1.17211C85.4577 0.888902 84.0289 1.0184 82.7271 1.54426C81.4254 2.07012 80.3089 2.96878 79.5187 4.12684C78.7284 5.28491 78.2998 6.65049 78.2869 8.05127C78.2757 9.93649 79.0152 11.7491 80.3429 13.0908C81.6706 14.4326 83.4781 15.1939 85.3682 15.2074ZM85.5084 -7.86828e-06C87.1159 0.0230834 88.6804 0.520548 90.0048 1.42962C91.3291 2.33868 92.3537 3.61862 92.9495 5.10792C93.5452 6.59723 93.6853 8.22916 93.3522 9.79781C93.019 11.3665 92.2275 12.8015 91.0774 13.922C89.9274 15.0424 88.4704 15.798 86.8902 16.0933C85.3101 16.3887 83.6777 16.2107 82.1989 15.5817C80.7201 14.9526 79.4613 13.9009 78.5812 12.559C77.7011 11.2171 77.2393 9.64535 77.2539 8.04195C77.2798 5.88389 78.1639 3.82442 79.7118 2.31636C81.2597 0.808305 83.3447 -0.024884 85.5084 -7.86828e-06Z" fill="white"/>
<path d="M85.4056 1.56647C87.1895 1.58493 88.8935 2.3076 90.1444 3.57628C91.3954 4.84496 92.0915 6.55631 92.0802 8.3357C92.072 9.42938 91.7926 10.504 91.2669 11.4639C91.8445 10.4718 92.1553 9.34765 92.169 8.2005C92.1739 6.7007 91.6776 5.24204 90.7584 4.05504C89.8393 2.86805 88.5497 2.02041 87.0936 1.64609C85.6375 1.27178 84.0978 1.39213 82.7179 1.98812C81.3381 2.58412 80.1967 3.62177 79.4741 4.93709C80.0749 3.90678 80.9384 3.05347 81.9769 2.4639C83.0154 1.87433 84.192 1.56952 85.3869 1.58045" fill="white"/>
<path d="M77.2539 8.04194C77.267 6.66477 77.6318 5.31366 78.3138 4.11618C78.9959 2.91871 79.9728 1.91441 81.1521 1.19812C79.3339 2.26813 78.0028 3.99996 77.439 6.02908C76.8752 8.05821 77.1226 10.2264 78.1292 12.0772C79.1357 13.9281 80.8229 15.3173 82.8357 15.9524C84.8485 16.5876 87.0298 16.4191 88.9205 15.4825L89.3879 15.2168C88.139 15.9043 86.7317 16.2546 85.3053 16.2331C83.8789 16.2116 82.4828 15.8191 81.2552 15.0943C80.0276 14.3696 79.011 13.3377 78.3059 12.1008C77.6009 10.8639 77.2318 9.46479 77.2352 8.04194" fill="white"/>
<path d="M84.9101 6.52682V5.56645C84.5689 5.60374 84.4006 5.74826 84.396 5.99069C84.3942 6.04862 84.4046 6.10629 84.4263 6.16005C84.448 6.21381 84.4806 6.2625 84.5222 6.30304C84.6343 6.39918 84.7624 6.47492 84.9008 6.52682H84.9101ZM85.9665 10.1958C86.0066 10.1642 86.0389 10.1238 86.0608 10.0777C86.0827 10.0316 86.0936 9.98108 86.0927 9.93008C86.0931 9.87012 86.0798 9.81086 86.0539 9.75675C86.028 9.70265 85.9901 9.65511 85.9431 9.61773C85.8216 9.51666 85.6842 9.43632 85.5365 9.37997V10.3124C85.6897 10.312 85.8399 10.2701 85.9711 10.1912L85.9665 10.1958ZM88.598 8.63405C88.7307 8.97716 88.7927 9.34342 88.7803 9.71097C88.7876 10.1492 88.6932 10.5832 88.5045 10.979C88.3397 11.3121 88.1017 11.6037 87.8081 11.8322C87.514 12.0566 87.1814 12.2257 86.8265 12.331C86.4566 12.4392 86.0755 12.5049 85.6907 12.5268V14.0606H84.6717V12.4988C84.0794 12.4442 83.4948 12.3254 82.9283 12.1445C82.387 11.9784 81.8676 11.7483 81.3812 11.4592L82.4749 9.32402C82.7135 9.47395 82.96 9.6109 83.2134 9.73428C83.4619 9.86012 83.7179 9.97066 83.98 10.0653C84.2698 10.1741 84.5707 10.2508 84.8774 10.2937V9.18416C84.6157 9.10957 84.3492 9.03031 84.0875 8.93241C83.7334 8.8125 83.3895 8.66439 83.0592 8.48952C82.7978 8.3406 82.5625 8.15005 82.3627 7.92542C82.1788 7.73021 82.0385 7.49819 81.9514 7.24477C81.863 6.96275 81.8204 6.66843 81.8252 6.37297C81.8206 5.95796 81.9034 5.5466 82.0683 5.16551C82.2157 4.82628 82.4303 4.52024 82.6993 4.26575C82.9705 4.00998 83.2876 3.80753 83.6341 3.66901C83.9944 3.51817 84.376 3.42382 84.7652 3.38929V2.10724H85.7842V3.39861C86.0595 3.43662 86.3326 3.48953 86.6022 3.55712C86.8639 3.62705 87.1163 3.71097 87.3594 3.79955C87.6024 3.88812 87.8268 3.98603 88.0371 4.08393L88.6214 4.36365L87.5276 6.39162C87.3396 6.26725 87.1428 6.15663 86.9387 6.06062C86.7354 5.95975 86.5262 5.87102 86.3124 5.79488C86.075 5.70898 85.8312 5.64195 85.5832 5.59442V6.73661C85.6647 6.75254 85.7445 6.77595 85.8216 6.80654L86.088 6.89046C86.4721 7.00987 86.8483 7.15312 87.2145 7.31936C87.5244 7.45916 87.8125 7.64288 88.0698 7.86481C88.305 8.07475 88.4902 8.33436 88.612 8.62472" fill="white"/>
<path d="M85.5738 6.75525C85.6553 6.77118 85.7351 6.79459 85.8122 6.82518L86.0833 6.9091C86.4656 7.02927 86.8402 7.1725 87.2051 7.338C87.515 7.4778 87.8031 7.66152 88.0604 7.88345C88.2956 8.09339 88.4808 8.353 88.6026 8.64336C88.733 8.98709 88.795 9.3529 88.7849 9.72028C88.7842 10.0591 88.7306 10.3956 88.626 10.718C88.6975 10.4439 88.7336 10.1619 88.7335 9.87879C88.7481 9.5111 88.6861 9.14438 88.5512 8.80187C88.4311 8.51056 88.2456 8.2506 88.009 8.04196C87.7532 7.81799 87.4648 7.63407 87.1537 7.49651C86.7891 7.33023 86.4144 7.18698 86.0319 7.0676C85.9384 7.03963 85.6346 6.92774 85.5645 6.9091L85.5738 6.75525Z" fill="white"/>
<path d="M85.7421 2.27972V3.5711C86.016 3.60866 86.2875 3.66158 86.5554 3.72961C86.8172 3.79954 87.0696 3.88345 87.3126 3.97203C87.5557 4.06061 87.78 4.15851 87.9904 4.25641L88.5466 4.52215L88.6261 4.37763L88.0418 4.09791C87.8268 4 87.6024 3.90676 87.364 3.81352C87.1257 3.72028 86.8686 3.64103 86.6068 3.5711C86.3378 3.50129 86.0646 3.44835 85.7889 3.41259V2.12122H84.7699V2.27972H85.7421Z" fill="white"/>
</svg>
