<svg width="107" height="34" viewBox="0 0 107 34" fill="none" xmlns="http://www.w3.org/2000/svg">
<path d="M82.7599 16.6625C83.8597 16.9711 85.01 17.0583 86.1439 16.919C79.8339 19.6695 65.3909 26.518 68.9151 30.1684C68.9151 30.1684 62.3106 27.0122 82.7599 16.6486" fill="#805AD5"/>
<path d="M66.4754 29.18C64.0355 24.849 73.0004 18.2197 78.9927 14.4528C79.3938 14.8619 79.8372 15.2275 80.3154 15.5437C68.6582 22.3549 67.4195 25.7535 67.4195 25.7535C63.9139 31.6136 75.3655 33.3805 75.3655 33.3805C68.2702 33.0821 66.4847 29.1847 66.4847 29.1847" fill="#805AD5"/>
<path d="M76.8893 10.9982C77.0154 11.3964 77.1717 11.7845 77.3567 12.1591C62.4556 22.1031 64.3112 27.8001 65.0637 29.1334C61.3992 23.2453 71.944 14.5973 76.8893 10.9982Z" fill="#805AD5"/>
<path d="M63.9654 23.0076C65.0358 17.5856 72.8463 10.8863 76.4968 8.04718C76.4712 8.64309 76.5088 9.24003 76.6089 9.82807C66.3259 17.0775 64.6619 22.2243 64.6619 22.2243C62.4323 28.4807 65.9847 30.9143 66.8774 31.4131C62.5024 29.0821 63.9654 23.0215 63.9654 23.0215" fill="#805AD5"/>
<path d="M63.2736 20.947C65.5126 13.954 73.6549 6.84907 78.1467 3.3479C77.4697 4.27312 76.985 5.32403 76.7211 6.43881C66.1015 14.4528 63.8626 21.1847 63.8626 21.1847C60.5066 33.1661 72.5985 33.9586 74.8047 34.0006C58.9127 33.8467 63.2736 20.947 63.2736 20.947Z" fill="#805AD5"/>
<path d="M0.719815 6.22437H4.67412C4.86503 6.22437 5.04812 6.30001 5.18311 6.43465C5.3181 6.56929 5.39394 6.7519 5.39394 6.94231V25.1754C5.39394 25.3658 5.46977 25.5484 5.60477 25.6831C5.73976 25.8177 5.92284 25.8934 6.11375 25.8934H13.4848C13.6762 25.8946 13.8593 25.9713 13.9941 26.1067C14.129 26.242 14.2047 26.4251 14.2047 26.616V30.0659C14.201 30.2538 14.1235 30.4329 13.9889 30.5645C13.8543 30.6961 13.6733 30.7699 13.4848 30.7698H0.719815C0.529715 30.7698 0.347332 30.6948 0.212474 30.5612C0.0776164 30.4276 0.00123441 30.2461 0 30.0565L0 6.94231C0 6.7519 0.0758374 6.56929 0.210829 6.43465C0.34582 6.30001 0.528908 6.22437 0.719815 6.22437Z" fill="#805AD5"/>
<path d="M34.1493 30.3036L32.747 26.3223C32.6968 26.1847 32.6052 26.0661 32.4847 25.9826C32.3642 25.8991 32.2207 25.8549 32.074 25.8561H23.7166C23.5705 25.8552 23.4278 25.8996 23.3081 25.9831C23.1884 26.0666 23.0976 26.1851 23.0482 26.3223L21.6179 30.3036C21.568 30.4404 21.4771 30.5585 21.3575 30.6419C21.2379 30.7253 21.0955 30.77 20.9495 30.7698H16.7054C16.5885 30.7698 16.4733 30.7412 16.37 30.6865C16.2667 30.6318 16.1785 30.5527 16.113 30.4561C16.0474 30.3594 16.0067 30.2483 15.9943 30.1323C15.9819 30.0163 15.9981 29.899 16.0417 29.7908L25.39 6.76515C25.4407 6.62986 25.5312 6.513 25.6496 6.42982C25.7681 6.34665 25.9089 6.30104 26.0537 6.29895H29.6715C29.8158 6.30069 29.9562 6.34623 30.0739 6.42951C30.1916 6.51279 30.2811 6.62987 30.3305 6.76515L39.7302 29.7955C39.774 29.9034 39.7904 30.0205 39.778 30.1363C39.7656 30.2521 39.7248 30.3631 39.6592 30.4594C39.5936 30.5558 39.5052 30.6345 39.4018 30.6886C39.2984 30.7428 39.1832 30.7707 39.0664 30.7698H34.8223C34.6758 30.7703 34.5326 30.7258 34.4122 30.6424C34.2918 30.559 34.2 30.4408 34.1493 30.3036ZM27.1942 14.6113L25.1048 20.4761C25.0704 20.5825 25.0615 20.6955 25.0789 20.806C25.0963 20.9165 25.1395 21.0213 25.205 21.112C25.2705 21.2028 25.3565 21.2769 25.456 21.3284C25.5555 21.3799 25.6658 21.4073 25.7779 21.4085H29.9566C30.0687 21.4073 30.1789 21.3799 30.2785 21.3284C30.378 21.2769 30.464 21.2028 30.5295 21.112C30.595 21.0213 30.6382 20.9165 30.6556 20.806C30.673 20.6955 30.6641 20.5825 30.6296 20.4761L28.5403 14.6113C28.4905 14.473 28.3992 14.3535 28.2787 14.2689C28.1582 14.1844 28.0145 14.1391 27.8672 14.1391C27.7199 14.1391 27.5762 14.1844 27.4558 14.2689C27.3353 14.3535 27.2439 14.473 27.1942 14.6113Z" fill="#805AD5"/>
<path d="M56.0894 30.3969L49.2512 18.0239C49.1809 17.8661 49.057 17.7382 48.9013 17.6627C48.7456 17.5873 48.5681 17.5691 48.4003 17.6115C48.2325 17.6539 48.0851 17.7541 47.9842 17.8944C47.8834 18.0347 47.8354 18.2061 47.8489 18.3782V30.0332C47.8503 30.2242 47.7767 30.4081 47.644 30.5457C47.5112 30.6833 47.3298 30.7637 47.1385 30.7698H43.2029C43.1061 30.7704 43.0102 30.752 42.9206 30.7154C42.831 30.6789 42.7496 30.6251 42.6809 30.5571C42.6123 30.4891 42.5578 30.4082 42.5207 30.3191C42.4835 30.23 42.4644 30.1344 42.4644 30.0379V7.05885C42.4644 6.96234 42.4835 6.86678 42.5207 6.77767C42.5578 6.68857 42.6123 6.60767 42.6809 6.53964C42.7496 6.47162 42.831 6.4178 42.9206 6.38129C43.0102 6.34478 43.1061 6.3263 43.2029 6.32692H47.4423C47.5732 6.32674 47.7017 6.36171 47.8144 6.42815C47.9271 6.4946 48.0197 6.59007 48.0827 6.70454L54.9302 19.0775C55.0005 19.2353 55.1245 19.3632 55.2802 19.4387C55.4359 19.5141 55.6133 19.5323 55.7811 19.4899C55.9489 19.4475 56.0963 19.3473 56.1972 19.207C56.2981 19.0667 56.346 18.8953 56.3325 18.7232V7.06818C56.3298 6.87951 56.4002 6.69708 56.5291 6.55896C56.658 6.42085 56.8354 6.33772 57.0242 6.32692H60.9645C61.1591 6.32692 61.3458 6.40403 61.4834 6.5413C61.6211 6.67856 61.6984 6.86473 61.6984 7.05885V30.0425C61.6972 30.2327 61.6219 30.4149 61.4885 30.5506C61.355 30.6864 61.1738 30.765 60.9832 30.7698H56.7438C56.6113 30.7715 56.4807 30.7378 56.3657 30.6722C56.2506 30.6066 56.1553 30.5116 56.0894 30.3969Z" fill="#805AD5"/>
<path d="M94.0573 6.40615C94.3396 7.60029 94.3661 8.84043 94.1349 10.0455C93.9038 11.2505 93.4202 12.3933 92.7158 13.3992V30.0518C92.7398 30.2567 92.8382 30.4456 92.9923 30.5831C93.1465 30.7205 93.3457 30.7969 93.5525 30.7978H106.304C106.398 30.7948 106.492 30.773 106.578 30.7339C106.665 30.6947 106.743 30.6388 106.807 30.5695C106.872 30.5001 106.923 30.4187 106.956 30.3298C106.989 30.241 107.004 30.1465 107 30.0518V26.6113C107.004 26.5173 106.989 26.4235 106.955 26.3354C106.922 26.2474 106.872 26.1669 106.807 26.0987C106.742 26.0304 106.664 25.9759 106.577 25.9382C106.491 25.9005 106.398 25.8805 106.304 25.8793H98.9605C98.7694 25.8819 98.5851 25.8096 98.4469 25.6779C98.3088 25.5463 98.228 25.3658 98.2219 25.1754V21.6835C98.2304 21.4939 98.3119 21.3148 98.4495 21.1837C98.5871 21.0525 98.7701 20.9794 98.9605 20.9796H105.944C106.036 20.9785 106.127 20.9587 106.212 20.9213C106.296 20.8839 106.373 20.8298 106.436 20.7622C106.498 20.6947 106.547 20.615 106.578 20.5282C106.609 20.4413 106.622 20.349 106.617 20.257V16.7838C106.623 16.6899 106.611 16.5958 106.58 16.5068C106.549 16.4178 106.501 16.3358 106.439 16.2655C106.376 16.1952 106.3 16.138 106.215 16.0973C106.13 16.0567 106.038 16.0333 105.944 16.0285H98.9605C98.866 16.0323 98.7717 16.0172 98.6832 15.9841C98.5947 15.951 98.5136 15.9007 98.4448 15.836C98.3761 15.7713 98.3209 15.6936 98.2826 15.6074C98.2444 15.5211 98.2237 15.4282 98.2219 15.3339V11.9306C98.2209 11.7268 98.2959 11.5299 98.4324 11.3782C98.5689 11.2265 98.7572 11.131 98.9605 11.1101H106.304C106.392 11.12 106.481 11.1111 106.566 11.0839C106.651 11.0567 106.728 11.0118 106.794 10.9523C106.86 10.8927 106.913 10.8199 106.948 10.7386C106.983 10.6573 107.001 10.5694 107 10.4807V7.0495C107.001 6.95988 106.983 6.87105 106.948 6.78876C106.912 6.70648 106.859 6.6326 106.793 6.57192C106.727 6.51124 106.649 6.46512 106.564 6.43656C106.479 6.408 106.388 6.39763 106.299 6.40615" fill="#805AD5"/>
<path d="M85.3682 14.8211C86.6961 14.8266 87.996 14.4396 89.1036 13.7089C90.2112 12.9783 91.0771 11.9368 91.5918 10.7158C92.1066 9.49489 92.2472 8.1492 91.9959 6.84862C91.7446 5.54803 91.1127 4.35083 90.1799 3.40811C89.2471 2.46538 88.0553 1.81938 86.7547 1.55163C85.4542 1.28387 84.1033 1.40637 82.8724 1.90366C81.6416 2.40094 80.5861 3.25073 79.839 4.34578C79.092 5.44083 78.6869 6.73206 78.6749 8.05652C78.6637 9.83867 79.3624 11.5523 80.6175 12.8208C81.8727 14.0893 83.5814 14.8088 85.3682 14.8211ZM85.4991 1.02622C86.9034 1.04654 88.2702 1.48126 89.4271 2.27555C90.5839 3.06984 91.479 4.18809 91.9993 5.48921C92.5197 6.79034 92.642 8.21604 92.3508 9.58642C92.0597 10.9568 91.3681 12.2105 90.3633 13.1892C89.3586 14.168 88.0857 14.828 86.7052 15.086C85.3248 15.344 83.8987 15.1884 82.6068 14.6388C81.315 14.0892 80.2153 13.1703 79.4464 11.9981C78.6776 10.8258 78.2741 9.45261 78.2869 8.05186C78.3116 6.16703 79.0847 4.36889 80.4367 3.05183C81.7887 1.73477 83.6093 1.0063 85.4991 1.02622Z" fill="#805AD5"/>
<path d="M85.3683 15.208C86.7728 15.2135 88.1474 14.8039 89.3187 14.0309C90.4901 13.258 91.4056 12.1563 91.9499 10.8649C92.4941 9.57355 92.6427 8.15031 92.3768 6.77479C92.1109 5.39927 91.4425 4.13312 90.4559 3.1361C89.4694 2.13908 88.2088 1.45586 86.8333 1.17266C85.4578 0.889451 84.029 1.01895 82.7273 1.54481C81.4255 2.07067 80.309 2.96933 79.5188 4.12739C78.7286 5.28546 78.2999 6.65104 78.287 8.05182C78.2758 9.93704 79.0153 11.7496 80.343 13.0914C81.6708 14.4332 83.4782 15.1944 85.3683 15.208ZM85.5085 0.000541448C87.116 0.0236327 88.6806 0.521097 90.0049 1.43016C91.3292 2.33923 92.3538 3.61917 92.9496 5.10847C93.5453 6.59777 93.6855 8.22971 93.3523 9.79836C93.0191 11.367 92.2276 12.8021 91.0775 13.9225C89.9275 15.0429 88.4705 15.7985 86.8904 16.0939C85.3102 16.3893 83.6778 16.2112 82.199 15.5822C80.7203 14.9532 79.4614 13.9014 78.5813 12.5595C77.7013 11.2177 77.2394 9.6459 77.254 8.0425C77.2799 5.88444 78.164 3.82497 79.7119 2.31691C81.2598 0.808855 83.3448 -0.0243347 85.5085 0.000541448Z" fill="#805AD5"/>
<path d="M85.4056 1.56701C87.1895 1.58548 88.8935 2.30815 90.1444 3.57683C91.3954 4.84551 92.0915 6.55686 92.0802 8.33624C92.072 9.42993 91.7926 10.5046 91.2669 11.4644C91.8445 10.4723 92.1553 9.3482 92.169 8.20105C92.1739 6.70125 91.6776 5.24259 90.7584 4.05559C89.8393 2.86859 88.5497 2.02096 87.0936 1.64664C85.6375 1.27233 84.0978 1.39268 82.7179 1.98867C81.3381 2.58467 80.1967 3.62232 79.4741 4.93764C80.0749 3.90733 80.9384 3.05402 81.9769 2.46445C83.0154 1.87488 84.192 1.57007 85.3869 1.581" fill="#805AD5"/>
<path d="M77.2538 8.04249C77.2669 6.66532 77.6317 5.31421 78.3138 4.11673C78.9959 2.91926 79.9727 1.91496 81.1521 1.19867C79.3339 2.26868 78.0028 4.00051 77.439 6.02963C76.8751 8.05876 77.1225 10.2269 78.1291 12.0778C79.1357 13.9286 80.8229 15.3178 82.8356 15.953C84.8484 16.5881 87.0297 16.4196 88.9205 15.483L89.3879 15.2173C88.1389 15.9048 86.7316 16.2551 85.3052 16.2337C83.8788 16.2122 82.4828 15.8197 81.2552 15.0949C80.0276 14.3701 79.0109 13.3382 78.3059 12.1013C77.6008 10.8644 77.2317 9.46534 77.2351 8.04249" fill="#805AD5"/>
<path d="M84.9101 6.52737V5.567C84.5689 5.60429 84.4006 5.74881 84.3959 5.99124C84.3942 6.04917 84.4045 6.10684 84.4262 6.1606C84.4479 6.21436 84.4806 6.26305 84.5221 6.30359C84.6342 6.39972 84.7623 6.47547 84.9007 6.52737H84.9101ZM85.9664 10.1964C86.0066 10.1648 86.0388 10.1243 86.0607 10.0782C86.0826 10.0321 86.0935 9.98163 86.0926 9.93063C86.093 9.87067 86.0797 9.81141 86.0538 9.7573C86.0279 9.7032 85.99 9.65566 85.943 9.61828C85.8216 9.51721 85.6842 9.43687 85.5364 9.38052V10.3129C85.6896 10.3125 85.8399 10.2706 85.9711 10.1917L85.9664 10.1964ZM88.5979 8.63459C88.7306 8.97771 88.7926 9.34397 88.7802 9.71152C88.7875 10.1498 88.6931 10.5837 88.5045 10.9796C88.3397 11.3126 88.1016 11.6043 87.808 11.8327C87.514 12.0572 87.1813 12.2262 86.8265 12.3316C86.4565 12.4397 86.0755 12.5054 85.6906 12.5274V14.0612H84.6717V12.4994C84.0794 12.4448 83.4948 12.326 82.9282 12.1451C82.387 11.979 81.8676 11.7489 81.3811 11.4598L82.4748 9.32457C82.7134 9.4745 82.96 9.61145 83.2134 9.73483C83.4619 9.86067 83.7179 9.97121 83.9799 10.0658C84.2697 10.1747 84.5707 10.2513 84.8773 10.2943V9.18471C84.6156 9.11012 84.3492 9.03086 84.0874 8.93296C83.7333 8.81305 83.3894 8.66494 83.0591 8.49007C82.7977 8.34115 82.5625 8.1506 82.3627 7.92597C82.1787 7.73076 82.0385 7.49874 81.9513 7.24532C81.8629 6.9633 81.8203 6.66897 81.8251 6.37352C81.8205 5.9585 81.9033 5.54715 82.0682 5.16606C82.2157 4.82683 82.4303 4.52079 82.6992 4.2663C82.9704 4.01053 83.2876 3.80807 83.634 3.66956C83.9944 3.51872 84.3759 3.42437 84.7652 3.38984V2.10779H85.7841V3.39916C86.0595 3.43717 86.3325 3.49008 86.6021 3.55767C86.8638 3.6276 87.1162 3.71152 87.3593 3.8001C87.6024 3.88867 87.8267 3.98658 88.0371 4.08448L88.6213 4.3642L87.5276 6.39217C87.3395 6.2678 87.1427 6.15718 86.9386 6.06117C86.7353 5.9603 86.5262 5.87157 86.3123 5.79543C86.0749 5.70953 85.8311 5.6425 85.5831 5.59497V6.73716C85.6646 6.75309 85.7444 6.7765 85.8215 6.80709L86.0879 6.891C86.472 7.01042 86.8482 7.15367 87.2144 7.31991C87.5244 7.45971 87.8125 7.64343 88.0698 7.86536C88.3049 8.0753 88.4901 8.33491 88.612 8.62527" fill="#805AD5"/>
<path d="M85.5738 6.7558C85.6553 6.77173 85.7351 6.79514 85.8122 6.82573L86.0833 6.90964C86.4656 7.02982 86.8402 7.17305 87.2051 7.33855C87.515 7.47835 87.8031 7.66207 88.0604 7.884C88.2956 8.09394 88.4808 8.35355 88.6026 8.64391C88.733 8.98764 88.795 9.35345 88.7849 9.72083C88.7842 10.0596 88.7306 10.3962 88.626 10.7185C88.6975 10.4445 88.7336 10.1625 88.7335 9.87934C88.7481 9.51165 88.6861 9.14493 88.5512 8.80242C88.4311 8.51111 88.2456 8.25115 88.009 8.04251C87.7532 7.81854 87.4648 7.63462 87.1537 7.49706C86.7891 7.33078 86.4144 7.18753 86.0319 7.06815C85.9384 7.04018 85.6346 6.92829 85.5645 6.90964L85.5738 6.7558Z" fill="#805AD5"/>
<path d="M85.742 2.28027V3.57165C86.0159 3.60921 86.2874 3.66213 86.5553 3.73016C86.817 3.80009 87.0694 3.884 87.3125 3.97258C87.5556 4.06116 87.7799 4.15906 87.9902 4.25696L88.5465 4.5227L88.6259 4.37818L88.0417 4.09845C87.8267 4.00055 87.6023 3.90731 87.3639 3.81407C87.1255 3.72083 86.8685 3.64158 86.6067 3.57165C86.3376 3.50184 86.0644 3.4489 85.7887 3.41314V2.12177H84.7698V2.28027H85.742Z" fill="#805AD5"/>
</svg>
