<svg width="40" height="40" viewBox="0 0 40 40" fill="none" xmlns="http://www.w3.org/2000/svg">
<path d="M38.0818 15.372L24.6321 1.9182C22.0745 -0.639399 17.9296 -0.639399 15.372 1.9182L1.9182 15.372C-0.639399 17.9296 -0.639399 22.0745 1.9182 24.6321L15.372 38.0818C17.9296 40.6394 22.0745 40.6394 24.6321 38.0818L38.0818 24.6321C40.6394 22.0745 40.6394 17.9296 38.0818 15.372ZM9.33117 10.1309C11.5883 7.8778 13.8415 5.62062 16.0986 3.3675C18.23 1.23617 21.7619 1.23211 23.8932 3.35938C26.1707 5.6328 28.4441 7.90622 30.7175 10.1837C30.7622 10.2284 30.8231 10.2649 30.8515 10.3583C30.6323 10.3583 30.4171 10.3583 30.206 10.3583C28.7283 10.3583 27.4657 10.8941 26.4184 11.9294C24.6159 13.7197 22.8215 15.5222 21.0271 17.3166C20.5196 17.824 19.935 17.824 19.4276 17.3166C17.6129 15.5019 15.8023 13.6791 13.9795 11.8725C12.9565 10.8576 11.7061 10.3542 10.2608 10.3339C9.90358 10.3298 9.55039 10.3339 9.19314 10.3339C9.18096 10.3136 9.16878 10.2933 9.1566 10.273C9.21344 10.2202 9.27839 10.1796 9.33117 10.1309ZM30.7216 29.8447C28.4441 32.1263 26.1666 34.4037 23.8851 36.6812C21.7741 38.7841 18.2462 38.7963 16.1352 36.6975C13.8496 34.424 11.5762 32.1425 9.29869 29.861C9.25809 29.8204 9.20126 29.7879 9.18502 29.7067C9.71278 29.6823 10.2284 29.727 10.7399 29.6742C11.9821 29.5524 13.062 29.0693 13.947 28.1924C15.7698 26.3859 17.5886 24.5712 19.391 22.7443C19.8782 22.2491 20.5927 22.2491 21.0799 22.7484C22.8093 24.5144 24.5753 26.2478 26.3169 28.0016C27.4373 29.1262 28.773 29.7108 30.3684 29.6742C30.5267 29.6702 30.6851 29.6742 30.8515 29.6742C30.8272 29.7635 30.7663 29.8001 30.7216 29.8447ZM36.6122 23.9501C35.2684 25.2979 33.9166 26.6457 32.5728 27.9935C32.4835 28.0828 32.4064 28.1559 32.2602 28.095C32.1912 28.0666 32.1019 28.0828 32.0207 28.0828C31.2575 28.0625 30.4943 28.1356 29.731 28.0422C28.8988 27.9448 28.1803 27.5957 27.5835 27.0029C25.781 25.2045 23.9825 23.402 22.18 21.5995C21.2707 20.6901 19.9635 20.5034 18.8917 21.1164C18.6847 21.2341 18.502 21.3844 18.3355 21.5508C16.5452 23.3452 14.7508 25.1314 12.9605 26.9299C12.177 27.7174 11.2311 28.1031 10.1228 28.1072C9.39206 28.1072 8.66132 28.0788 7.93464 28.1234C7.63016 28.1437 7.45966 28.0341 7.26885 27.8433C5.97382 26.5361 4.67066 25.241 3.37156 23.9419C1.20775 21.7781 1.20369 18.2625 3.36344 16.1027C4.71532 14.7508 6.06719 13.399 7.41906 12.043C7.52461 11.9375 7.61393 11.8847 7.78037 11.9091C8.04425 11.9456 8.32031 11.9212 8.58825 11.9253C9.1972 11.9334 9.80209 11.9091 10.411 11.9415C11.4016 11.9943 12.2338 12.384 12.9321 13.0823C14.7224 14.8726 16.5168 16.667 18.3071 18.4573C19.4235 19.5737 21.019 19.5778 22.1395 18.4654C23.1422 17.4708 24.1368 16.4681 25.1355 15.4694C25.9393 14.6656 26.7391 13.8618 27.5429 13.062C28.2817 12.3232 29.1789 11.9618 30.2223 11.9497C30.8028 11.9415 31.3833 11.9497 31.9639 11.9497C32.0045 11.9497 32.0491 11.9618 32.0857 11.9497C32.3983 11.836 32.5688 12.039 32.7636 12.2338C34.0993 13.5817 35.4633 14.9092 36.7786 16.2732C37.7773 17.3084 38.232 18.5913 38.2482 20.069C38.228 21.5467 37.6961 22.8661 36.6122 23.9501Z" fill="#14142B"/>
</svg>
