<svg width="25" height="25" viewBox="0 0 25 25" fill="none" xmlns="http://www.w3.org/2000/svg">
<path d="M23.7513 9.55743L15.3453 1.14882C13.7468 -0.449673 11.1562 -0.449673 9.55768 1.14882L1.14907 9.55743C-0.449429 11.1559 -0.449429 13.7465 1.14907 15.345L9.55768 23.7511C11.1562 25.3496 13.7468 25.3496 15.3453 23.7511L23.7513 15.345C25.3498 13.7465 25.3498 11.1559 23.7513 9.55743ZM5.78218 6.28178C7.19291 4.87358 8.60111 3.46284 10.0119 2.05464C11.3439 0.722558 13.5514 0.720021 14.8835 2.04957C16.3069 3.47045 17.7278 4.89134 19.1487 6.31476C19.1766 6.34267 19.2146 6.36551 19.2324 6.42387C19.0954 6.42387 18.9609 6.42387 18.829 6.42387C17.9054 6.42387 17.1163 6.75879 16.4617 7.4058C15.3351 8.52475 14.2136 9.65131 13.0921 10.7728C12.775 11.09 12.4096 11.09 12.0924 10.7728C10.9583 9.63862 9.82663 8.49938 8.68738 7.37028C8.04798 6.73596 7.2665 6.42133 6.36322 6.40864C6.13993 6.40611 5.91919 6.40864 5.69591 6.40864C5.6883 6.39596 5.68068 6.38327 5.67307 6.37058C5.70859 6.3376 5.74919 6.31223 5.78218 6.28178ZM19.1512 18.6029C17.7278 20.0289 16.3044 21.4523 14.8784 22.8757C13.559 24.19 11.3541 24.1976 10.0347 22.8859C8.60619 21.465 7.1853 20.039 5.76188 18.613C5.7365 18.5877 5.70098 18.5674 5.69083 18.5166C6.02068 18.5014 6.34292 18.5293 6.66262 18.4963C7.43903 18.4202 8.11395 18.1183 8.66708 17.5702C9.80633 16.4411 10.943 15.3069 12.0696 14.1652C12.3741 13.8556 12.8206 13.8556 13.1251 14.1677C14.206 15.2714 15.3097 16.3549 16.3982 17.451C17.0985 18.1538 17.9333 18.5192 18.9305 18.4963C19.0294 18.4938 19.1284 18.4963 19.2324 18.4963C19.2172 18.5522 19.1791 18.575 19.1512 18.6029ZM22.8328 14.9187C21.993 15.7611 21.1481 16.6035 20.3082 17.4459C20.2524 17.5017 20.2042 17.5474 20.1128 17.5093C20.0697 17.4916 20.0139 17.5017 19.9631 17.5017C19.4861 17.489 19.0091 17.5347 18.5321 17.4763C18.012 17.4154 17.5629 17.1972 17.1899 16.8268C16.0633 15.7028 14.9393 14.5762 13.8127 13.4496C13.2444 12.8813 12.4274 12.7646 11.7575 13.1477C11.6281 13.2213 11.5139 13.3152 11.4099 13.4192C10.291 14.5407 9.16947 15.6571 8.05052 16.7811C7.56082 17.2734 6.96963 17.5144 6.27695 17.5169C5.82024 17.5169 5.36352 17.4992 4.90934 17.5271C4.71905 17.5398 4.61248 17.4713 4.49323 17.352C3.68383 16.535 2.86936 15.7256 2.05742 14.9137C0.705042 13.5613 0.702504 11.364 2.05235 10.0141C2.89727 9.16922 3.74219 8.3243 4.58711 7.47685C4.65308 7.41088 4.7089 7.37789 4.81293 7.39312C4.97785 7.41595 5.15039 7.40073 5.31785 7.40327C5.69844 7.40834 6.0765 7.39312 6.4571 7.41341C7.0762 7.4464 7.59634 7.68998 8.03276 8.1264C9.15171 9.24534 10.2732 10.3668 11.3921 11.4858C12.0899 12.1835 13.0871 12.1861 13.7874 11.4909C14.4141 10.8692 15.0357 10.2425 15.6599 9.61833C16.1623 9.11594 16.6621 8.61356 17.1645 8.11371C17.6263 7.65192 18.187 7.4261 18.8391 7.41849C19.2019 7.41341 19.5648 7.41849 19.9276 7.41849C19.953 7.41849 19.9809 7.4261 20.0037 7.41849C20.1991 7.34744 20.3057 7.47431 20.4275 7.5961C21.2622 8.43848 22.1148 9.26818 22.9369 10.1207C23.561 10.7677 23.8452 11.5695 23.8554 12.4931C23.8427 13.4167 23.5103 14.2413 22.8328 14.9187Z" fill="#14142A"/>
</svg>
